<svg xmlns="http://www.w3.org/2000/svg" width="23" height="18" viewBox="0 0 23 18"><g><g><path fill="#fff" d="M23 1.508v14.65c0 .81-.677 1.467-1.508 1.467H1.651c-.832 0-1.508-.657-1.508-1.466V1.508C.143.7.819.042 1.65.042h19.841C22.323.042 23 .7 23 1.508zm-21.565 0V12.49L5.35 9.595c.594-.44 1.519-.48 2.15-.092l3.688 2.257c.136.083.375.051.483-.064l4.484-4.818c.28-.3.67-.465 1.067-.451.399.014.774.206 1.03.526l3.456 4.312V1.508a.215.215 0 0 0-.215-.21H1.651a.215.215 0 0 0-.216.21zm20.272 14.65v-2.85l-4.475-5.583c-.025-.03-.047-.042-.058-.042-.015 0-.034.009-.061.038l-4.484 4.817c-.529.568-1.465.694-2.131.285L6.81 10.566c-.173-.106-.516-.091-.68.03L1.436 14.07v2.089c0 .114.099.21.216.21h19.841a.215.215 0 0 0 .215-.21zM7.405 6.324c0-1.227 1.027-2.225 2.29-2.225 1.261 0 2.288.998 2.288 2.225s-1.027 2.225-2.289 2.225c-1.262 0-2.29-.998-2.29-2.225zm1.293 0c0 .534.447.968.996.968.55 0 .997-.434.997-.968 0-.535-.447-.97-.997-.97s-.996.436-.996.97z"/></g></g></svg>